<?xml version="1.0" encoding="UTF-8" standalone="no"?>
<svg width="170px" height="118px" viewBox="0 0 170 118" version="1.1" xmlns="http://www.w3.org/2000/svg" xmlns:xlink="http://www.w3.org/1999/xlink">
    <!-- Generator: Sketch 39.1 (31720) - http://www.bohemiancoding.com/sketch -->
    <title>Group 7</title>
    <desc>Created with Sketch.</desc>
    <defs>
        <polygon id="path-1" points="27.5900307 0.0306675327 0.176785088 0.0306675327 0.176785088 26.9236253 27.5900307 26.9236253 27.5900307 0.0306675327"></polygon>
        <polygon id="path-3" points="25.5293772 0.0306675327 0.103192982 0.0306675327 0.103192982 26.9237001 25.5293772 26.9237001 25.5293772 0.0306675327"></polygon>
        <polygon id="path-5" points="0.11527193 26.1796011 21.6351842 26.1796011 21.6351842 0.28281449 0.11527193 0.28281449"></polygon>
        <polygon id="path-7" points="0.701399123 26.1796011 28.1481974 26.1796011 28.1481974 0.282889289 0.701399123 0.282889289 0.701399123 26.1796011"></polygon>
        <polygon id="path-9" points="1.03773523e-12 116.686222 169.8725 116.686222 169.8725 0.0306675327 1.03773523e-12 0.0306675327 1.03773523e-12 26.3433358 25.8153202 26.3433358 25.8153202 0.447970374 -7.45614025e-05 0.447970374 -7.45614025e-05 26.3433358"></polygon>
    </defs>
    <g id="Page-1" stroke="none" stroke-width="1" fill="none" fill-rule="evenodd">
        <g id="Forge-Launching-Page" transform="translate(-1513.000000, -540.000000)">
            <g id="Group-7" transform="translate(1513.000000, 540.000000)">
                <g id="Page-1">
                    <polygon id="Fill-1" fill="#F9BE00" points="33.1271842 1.24599941 33.1271842 27.1428608 39.7161754 27.1428608 39.7161754 18.2784479 50.2770526 18.2784479 50.2770526 12.2691074 39.7161754 12.2691074 39.7161754 7.68618128 52.2961754 7.68618128 52.2961754 1.24599941"></polygon>
                    <g id="Group-39" transform="translate(0.000000, 0.717321)">
                        <g id="Group-4" transform="translate(56.666667, 0.000000)">
                            <mask id="mask-2" fill="white">
                                <use xlink:href="#path-1"></use>
                            </mask>
                            <g id="Clip-3"></g>
                            <path d="M13.8834079,20.515607 C17.8560395,20.515607 20.9018728,17.3949985 20.9018728,13.4770342 C20.9018728,9.55981793 17.8560395,6.43846149 13.8834079,6.43846149 C10.009943,6.43846149 6.86419737,9.55981793 6.86419737,13.4770342 C6.86419737,17.3949985 10.009943,20.515607 13.8834079,20.515607 M13.8834079,0.0304431361 C21.4320044,0.0304431361 27.5900307,6.07269506 27.5900307,13.4770342 C27.5900307,20.8806254 21.4320044,26.9236253 13.8834079,26.9236253 C6.43397807,26.9236253 0.176785088,20.8806254 0.176785088,13.4770342 C0.176785088,6.07269506 6.43397807,0.0304431361 13.8834079,0.0304431361" id="Fill-2" fill="#F9BE00" mask="url(#mask-2)"></path>
                        </g>
                        <path d="M97.0539693,6.57122947 L97.0539693,13.4766602 L102.716162,13.4766602 C105.364583,13.4766602 106.357741,11.850533 106.357741,10.0576043 C106.357741,8.06496271 105.364583,6.57122947 102.716162,6.57122947 L97.0539693,6.57122947 Z M103.080022,0.528977539 C109.701075,0.528977539 112.747654,4.84412378 112.747654,9.99103336 C112.747654,13.6098022 111.125197,16.9966946 107.648399,18.5899103 L113.244232,26.4258389 L105.331776,26.4258389 L100.430855,19.4867487 L97.0539693,19.4867487 L97.0539693,26.4258389 L90.4657237,26.4258389 L90.4657237,0.528977539 L103.080022,0.528977539 Z" id="Fill-5" fill="#F9BE00"></path>
                        <g id="Group-9" transform="translate(117.807018, 0.000000)">
                            <mask id="mask-4" fill="white">
                                <use xlink:href="#path-3"></use>
                            </mask>
                            <g id="Clip-8"></g>
                            <path d="M13.0813509,11.3191619 L25.5293772,11.3191619 L25.5293772,26.4255397 L20.3317018,26.4255397 L20.3317018,24.0020567 C19.0731053,25.9273793 16.4574912,26.9237001 13.8098158,26.9237001 C6.32683333,26.9237001 0.103192982,20.8807002 0.103192982,13.477109 C0.103192982,6.07276986 6.32683333,0.030517935 13.8098158,0.030517935 C18.2462193,0.030517935 22.2516579,2.18846505 24.7352982,5.44296346 L19.3385439,9.09389583 C18.0471404,7.46776861 16.0608246,6.43853629 13.8098158,6.43853629 C9.90279825,6.43853629 6.78985965,9.55914474 6.78985965,13.477109 C6.78985965,17.3950733 9.90279825,20.5156818 13.8098158,20.5156818 C16.1271842,20.5156818 18.1135,19.3533075 19.3385439,17.5611268 L19.3385439,16.8303419 L13.0813509,16.8303419 L13.0813509,11.3191619 Z" id="Fill-7" fill="#F9BE00" mask="url(#mask-4)"></path>
                        </g>
                        <polygon id="Fill-10" fill="#F9BE00" points="150.040658 0.528827942 169.8725 0.528827942 169.8725 6.96900981 156.662456 6.96900981 156.662456 10.6880091 167.521579 10.6880091 167.521579 16.6973496 156.662456 16.6973496 156.662456 20.018419 169.8725 20.018419 169.8725 26.4256893 150.040658 26.4256893"></polygon>
                        <polygon id="Fill-12" fill="#F9BE00" points="56.7136404 40.0115559 62.4414474 30.6153231 70.2547368 30.6153231 60.0241667 47.0164692 60.0241667 56.5129325 53.4359211 56.5129325 53.4359211 47.0164692 43.2389035 30.6153231 51.0186404 30.6153231"></polygon>
                        <path d="M85.630193,50.6024761 C89.6028246,50.6024761 92.6486579,47.4818677 92.6486579,43.5639034 C92.6486579,39.6466871 89.6028246,36.5253306 85.630193,36.5253306 C81.7567281,36.5253306 78.6109825,39.6466871 78.6109825,43.5639034 C78.6109825,47.4818677 81.7567281,50.6024761 85.630193,50.6024761 M85.630193,30.1173123 C93.1787895,30.1173123 99.3368158,36.1595642 99.3368158,43.5639034 C99.3368158,50.9674946 93.1787895,57.0104945 85.630193,57.0104945 C78.1807632,57.0104945 71.9235702,50.9674946 71.9235702,43.5639034 C71.9235702,36.1595642 78.1807632,30.1173123 85.630193,30.1173123" id="Fill-14" fill="#F9BE00"></path>
                        <path d="M128.9195,30.6156971 L128.9195,45.190255 C128.9195,51.8645573 124.747789,57.0107189 117.034412,57.0107189 C109.286737,57.0107189 105.181386,51.8645573 105.181386,45.190255 L105.181386,30.6156971 L111.803184,30.6156971 L111.803184,44.7923251 C111.803184,48.5442359 113.590421,50.6027005 117.034412,50.6027005 C120.510465,50.6027005 122.331254,48.5442359 122.331254,44.7923251 L122.331254,30.6156971 L128.9195,30.6156971 Z" id="Fill-16" fill="#F9BE00"></path>
                        <path d="M142.293952,36.6580238 L142.293952,43.5634546 L147.956145,43.5634546 C150.604566,43.5634546 151.597724,41.9373274 151.597724,40.1443987 C151.597724,38.151757 150.604566,36.6580238 147.956145,36.6580238 L142.293952,36.6580238 Z M148.320004,30.6157719 C154.941057,30.6157719 157.987636,34.9309181 157.987636,40.0778277 C157.987636,43.6965965 156.36518,47.0834889 152.888382,48.6767047 L158.484215,56.5126333 L150.571759,56.5126333 L145.670838,49.573543 L142.293952,49.573543 L142.293952,56.5126333 L135.705706,56.5126333 L135.705706,30.6157719 L148.320004,30.6157719 Z" id="Fill-18" fill="#F9BE00"></path>
                        <path d="M65.3311491,80.6892704 C69.3037807,80.6892704 72.349614,77.568662 72.349614,73.6506977 C72.349614,69.7334814 69.3037807,66.612125 65.3311491,66.612125 C61.4576842,66.612125 58.3119386,69.7334814 58.3119386,73.6506977 C58.3119386,77.568662 61.4576842,80.6892704 65.3311491,80.6892704 M65.3311491,60.2041066 C72.8797456,60.2041066 79.0377719,66.2463585 79.0377719,73.6506977 C79.0377719,81.0542889 72.8797456,87.0972888 65.3311491,87.0972888 C57.8817193,87.0972888 51.6245263,81.0542889 51.6245263,73.6506977 C51.6245263,66.2463585 57.8817193,60.2041066 65.3311491,60.2041066" id="Fill-20" fill="#F9BE00"></path>
                        <polygon id="Fill-22" fill="#F9BE00" points="89.7318158 86.5994276 82.4814649 60.7025662 89.5327368 60.7025662 93.7044474 76.141051 98.5390088 60.7025662 104.431596 60.7025662 109.265412 76.1081395 113.437123 60.7025662 120.521947 60.7025662 113.270851 86.5994276 106.417912 86.5994276 101.485675 71.5596208 96.5847544 86.5994276"></polygon>
                        <polygon id="Fill-24" fill="#F9BE00" points="125.845333 86.5994276 125.845333 60.7025662 131.473974 60.7025662 142.995202 75.1776416 142.995202 60.7025662 149.583447 60.7025662 149.583447 86.5994276 143.98836 86.5994276 132.467132 72.1565157 132.467132 86.5994276"></polygon>
                        <g id="Group-28" transform="translate(49.210526, 90.506621)">
                            <mask id="mask-6" fill="white">
                                <use xlink:href="#path-5"></use>
                            </mask>
                            <g id="Clip-27"></g>
                            <path d="M6.73707018,6.32506642 L6.73707018,14.2597295 L11.1399211,14.2597295 C13.9210614,14.2597295 14.9477719,12.5341198 14.9477719,10.2422827 C14.9477719,8.18381809 13.9210614,6.32506642 11.1399211,6.32506642 L6.73707018,6.32506642 Z M0.11527193,0.28281449 L11.5045263,0.28281449 C18.3574649,0.28281449 21.6351842,4.99738665 21.6351842,10.2093712 C21.6351842,15.6883877 18.3574649,20.3027294 11.5045263,20.3027294 L6.73707018,20.3027294 L6.73707018,26.1796759 L0.11527193,26.1796759 L0.11527193,0.28281449 Z" id="Fill-26" fill="#F9BE00" mask="url(#mask-6)"></path>
                        </g>
                        <g id="Group-31" transform="translate(72.324561, 90.506621)">
                            <mask id="mask-8" fill="white">
                                <use xlink:href="#path-7"></use>
                            </mask>
                            <g id="Clip-30"></g>
                            <path d="M14.4415746,8.78228377 L11.5940746,16.3848399 L17.2547763,16.3848399 L14.4415746,8.78228377 Z M17.7192939,0.282889289 L28.1481974,26.1797507 L20.9299079,26.1797507 L19.5065307,22.3941804 L9.34306579,22.3941804 L7.91894298,26.1797507 L0.701399123,26.1797507 L11.1638553,0.282889289 L17.7192939,0.282889289 Z" id="Fill-29" fill="#F9BE00" mask="url(#mask-8)"></path>
                        </g>
                        <polygon id="Fill-32" fill="#F9BE00" points="100.601452 90.7892857 123.312855 90.7892857 123.312855 97.2294676 115.26768 97.2294676 115.26768 116.686147 108.646627 116.686147 108.646627 97.2294676 100.601452 97.2294676"></polygon>
                        <polygon id="Fill-34" fill="#F9BE00" points="153.106101 90.7892857 153.106101 116.686147 146.484303 116.686147 146.484303 107.058038 135.956232 107.058038 135.956232 116.686147 129.367987 116.686147 129.367987 90.7892857 135.956232 90.7892857 135.956232 100.848984 146.484303 100.848984 146.484303 90.7892857"></polygon>
                        <g id="Group-38">
                            <mask id="mask-10" fill="white">
                                <use xlink:href="#path-9"></use>
                            </mask>
                            <g id="Clip-37"></g>
                        </g>
                    </g>
                </g>
                <path d="M10.4713289,10.8794194 L8.86751316,17.3465289 L15.3133465,17.3465289 L16.9477325,10.8794194 L10.4713289,10.8794194 Z M9.68396053,1.16529144 L12.8923377,1.16529144 L11.2885219,7.63090492 L17.7343553,7.63090492 L19.3687412,1.16529144 L22.5771184,1.16529144 L20.972557,7.63090492 L25.8153202,7.63090492 L25.8153202,10.8794194 L20.1561096,10.8794194 L18.5515482,17.3465289 L22.5771184,17.3465289 L22.5771184,20.5942954 L17.7343553,20.5942954 L16.1305395,27.0606568 L12.8923377,27.0606568 L14.5267237,20.5942954 L8.05032018,20.5942954 L6.44650439,27.0606568 L3.20755702,27.0606568 L4.84194298,20.5942954 L-7.45614025e-05,20.5942954 L-7.45614025e-05,17.3465289 L5.62856579,17.3465289 L7.26295175,10.8794194 L3.20755702,10.8794194 L3.20755702,7.63090492 L8.05032018,7.63090492 L9.68396053,1.16529144 Z" id="Fill-36" fill="#F9BE00"></path>
            </g>
        </g>
    </g>
</svg>