<?xml version="1.0" encoding="UTF-8" standalone="no"?>
<svg width="290px" height="104px" viewBox="0 0 290 104" version="1.1" xmlns="http://www.w3.org/2000/svg" xmlns:xlink="http://www.w3.org/1999/xlink">
    <!-- Generator: Sketch 40.2 (33826) - http://www.bohemiancoding.com/sketch -->
    <title>Group 2</title>
    <desc>Created with Sketch.</desc>
    <defs></defs>
    <g id="Page-1" stroke="none" stroke-width="1" fill="none" fill-rule="evenodd">
        <g id="Forge-About" transform="translate(-1155.000000, -845.000000)" fill="#F9BE00">
            <g id="Group-6" transform="translate(1075.000000, 396.000000)">
                <g id="Group-2" transform="translate(80.000000, 449.000000)">
                    <path d="M90.4775772,28.6016779 C94.8868147,21.842408 102.92817,7.04463719 92.1385456,1.84443004 C88.3063113,-0.00112714195 83.4601525,0.551873747 79.5045128,1.62456222 C74.1380507,3.08035371 69.1751571,5.92864142 65.0227361,9.59643647 C60.4400642,13.6373406 57.0047279,18.7042945 54.8634795,24.4141952 C51.7883532,32.602606 54.9968906,41.2707283 57.4549904,49.2192833 C61.0904434,60.9788805 64.7592491,74.6173482 59.9664547,86.6301265 C58.5022677,90.2912589 56.1142087,93.6325835 53.0924469,95.994497 C50.1574023,98.2931151 47.189005,99.4724062 43.5902401,100.268594 C36.3460164,101.864302 27.9244397,100.738312 20.7335804,97.989964 C12.6355256,94.8951579 1.31225706,86.9599282 5.31459057,76.7827131 C6.07836922,74.8438787 1.67246707,75.8865851 1.15883427,77.1858041 C-4.69457849,92.0768521 15.1736721,100.961511 26.5503052,102.956978 C34.8251297,104.409438 43.5869048,103.596594 51.1846679,99.9054792 C59.2026761,96.014485 64.3289983,88.5989429 65.9499433,79.9341519 C67.0339087,74.1276426 66.6036578,68.0946028 65.6230861,62.3047501 C64.145558,53.5733324 60.7168923,45.358271 58.7924369,36.7367873 C57.8952471,32.7125399 57.5150255,28.8082204 58.7590841,24.8339429 C59.6996325,21.8190886 61.1504784,18.9708009 62.898164,16.3490437 C65.9232611,11.8051087 70.1724052,8.08068102 75.0452462,5.62882166 C79.6479298,3.3068842 86.8688065,1.62123089 91.0579156,6.02525001 C93.1291232,8.20394026 93.2858812,11.4952949 92.8756421,14.3002754 C92.095187,19.6237417 89.2168422,24.5740991 86.3218209,29.0047689 C85.7248062,29.9175535 87.0288998,30.1740659 87.642591,30.1107706 C88.686533,30.014162 89.887233,29.5044685 90.4775772,28.6016779" id="Fill-1"></path>
                    <path d="M77.0744293,62.8291015 C77.0010532,62.8990595 76.9176713,62.9690174 76.8342893,63.0423067 C76.0238168,61.8929976 76.4674088,60.114067 76.8309541,58.8948 C77.7481555,55.8066565 80.3196548,51.3160228 83.7049619,50.4498768 C83.8417083,50.4132322 83.9651135,50.3732562 84.0751777,50.3332802 C83.4381396,51.6924631 82.6877021,53.5213637 82.110699,55.4468728 C82.0906873,55.4801861 82.074011,55.5201621 82.0539993,55.5534754 C80.729894,58.138588 79.2123425,60.8236405 77.0744293,62.8291015 M85.3359128,65.4541901 C88.5811382,65.3942261 90.6390047,62.3993599 92.2666203,59.9774825 C92.7502356,59.2545837 93.1938276,58.4850463 93.630749,57.6921897 C93.7574895,58.4850463 94.0276471,59.2379271 94.5612915,59.9108559 C95.1849885,60.7037126 96.9493505,60.6803932 97.7131292,60.1107357 C99.030564,59.1313245 100.114529,57.9187201 101.068419,56.5995132 C101.13846,57.3923699 101.308559,58.1818953 101.632081,58.954764 C102.079008,60.0341151 104.44372,59.5011022 105.064082,58.9414386 C105.364257,58.6716009 105.64442,58.3884378 105.914578,58.0952807 C105.994624,59.3045537 106.288129,60.4838447 106.931837,61.5898465 C107.478823,62.5359444 109.336573,62.189486 110.08701,61.7930577 C112.558451,60.4705194 114.496248,58.3184798 116.107187,55.8832771 C116.113858,55.9299157 116.117193,55.973223 116.123863,56.0198617 C116.504085,58.7215708 118.748727,60.4072241 121.266862,60.9768817 C126.653336,62.2061427 129.314888,57.1924901 133.457303,54.300895 C135.201653,53.0849594 131.702947,52.4719945 130.722375,53.1582486 C129.098094,54.2909011 128.894643,56.5861879 127.170304,57.5622678 C125.559365,58.471721 124.508752,59.7176387 122.594303,59.1246618 C117.978278,57.6788643 120.299631,51.1894322 120.309637,47.8447762 C120.312972,46.5089126 117.054406,46.9386543 116.62082,47.8514389 C114.893146,51.469264 112.895314,56.0065363 109.766824,58.8981313 C109.093097,55.7600179 110.427209,52.1355301 110.840783,49.1006879 C111.007547,47.8614329 107.562205,48.1612527 107.151966,49.1073506 C106.391522,50.8529678 105.667767,52.6552177 104.743895,54.320883 C104.910659,52.4286872 105.437633,50.4898528 105.584385,48.7109222 C105.697785,47.348408 102.365842,47.9080715 101.892232,48.7175849 C100.438051,51.2260769 99.1406281,54.2709131 97.2628666,56.6728025 C97.1394614,54.7906007 97.7764995,52.658549 97.7898406,50.9329198 C97.7998464,49.6170441 94.8114374,50.1067498 94.2711223,50.6963953 C92.6501773,52.4819885 91.5862236,54.8572273 90.3721824,56.9193209 C89.1114474,59.0547039 87.7039601,61.8297023 85.5960645,63.3221385 C85.219178,62.8657462 85.0957728,62.2727693 85.0057203,61.7064431 C84.762245,60.1273924 85.1191197,58.4284137 85.4893356,56.899333 C85.5760528,56.5328866 85.6727758,56.1631089 85.7728342,55.7999938 C86.9401815,53.6712736 87.9741176,51.3926434 88.4510624,49.1306699 C88.7779196,47.5782698 85.3692656,47.8814209 84.8122741,48.8841514 C84.7689155,48.960772 84.7188864,49.0507179 84.6721925,49.1373325 C84.2853002,48.7475668 83.4247985,48.4910544 82.5843085,48.7075909 C78.0349894,49.8702253 74.8631401,54.0110693 73.3189064,58.2651785 C72.1548944,61.4599246 72.5351161,65.3309308 76.6875371,65.2676356 C78.5552927,65.2343223 80.0961911,64.0683565 81.366932,62.602571 C81.7938476,64.3381943 82.9611949,65.5008287 85.3359128,65.4541901" id="Fill-3"></path>
                    <path d="M118.200407,37.7565076 C118.413865,37.4267059 118.664011,37.1768561 118.974192,36.9436629 C118.974192,36.9436629 119.13762,37.0735848 119.237679,37.1668621 C119.884723,37.7898209 119.404443,38.5127197 118.760734,38.7725635 C118.183731,39.0057566 117.856874,39.7219927 118.087008,40.2949816 C118.016967,40.3016442 117.953597,40.3016442 117.896897,40.2883189 C117.793503,40.2716623 117.743474,40.1917103 117.683439,39.9884992 C117.469982,39.2722631 117.81018,38.3761351 118.200407,37.7565076 M119.581212,42.3903886 C120.214915,42.1638581 120.848618,41.6541645 120.665178,40.8912898 C120.641831,40.7880185 120.591802,40.6914099 120.538437,40.601464 C122.179394,39.6453721 122.833108,37.6465737 121.739137,35.9342698 C120.521761,34.0387426 118.006961,34.2686044 116.566121,35.7343899 C115.335404,36.9836389 114.554949,38.88916 114.948511,40.6447713 C115.432127,42.7834856 117.850203,42.9933594 119.581212,42.3903886" id="Fill-5"></path>
                    <path d="M248.421331,43.7945444 C247.410742,45.2070286 246.089972,46.3963137 244.222216,45.976566 C242.7647,45.6500956 243.021516,43.6313092 243.228303,42.4253675 C243.938718,38.2512102 247.874346,35.7826942 251.976737,37.0719192 C251.026183,39.4404953 249.892189,41.7324508 248.421331,43.7945444 M233.906202,39.720327 C232.865595,40.9395941 231.524813,42.2154937 229.81048,42.3254276 C229.777128,42.3320903 229.750445,42.3354216 229.723763,42.3387529 C229.723763,42.278789 229.717093,42.2054997 229.707087,42.1155538 C229.613699,41.3993177 229.790469,40.586473 229.977244,39.9035502 C230.811064,36.818738 233.529315,33.2242323 237.24148,34.2502821 C237.414914,34.2935894 237.541655,34.2935894 237.641713,34.2636074 C236.557748,36.2024419 235.333701,38.0613244 233.906202,39.720327 M242.05095,24.2929348 C242.46119,21.9510093 243.021516,19.6357345 243.838659,17.4370563 C243.418414,19.7523311 242.8214,22.0376239 242.05095,24.2929348 M216.182535,44.1176835 C215.818989,44.2042981 215.46545,44.1310088 215.131922,43.9910929 C215.665567,44.2109608 215.395409,43.7578998 215.512144,43.1016277 C215.745613,41.7890834 216.549415,40.5231777 217.2665,39.4105133 C218.490547,37.5149861 220.201545,35.7727002 222.222723,34.6200598 C221.238816,37.8281312 219.601195,43.2781882 216.182535,44.1176835 M257.386558,54.8878755 C255.545485,51.839708 255.195281,43.2781882 255.562161,39.9102129 C255.722255,38.3711381 255.862336,36.7854247 256.012424,35.176392 C256.816226,32.8311352 257.46327,30.4292458 258.387142,28.1272964 C260.204868,23.600018 262.095971,18.9727997 262.15267,14.0457617 C262.166012,13.2062664 260.551737,10.6544671 259.601183,11.8737341 C256.26924,16.174482 255.071875,21.7044909 254.218044,26.9113607 C253.86117,29.1033762 253.514301,31.3620184 253.247478,33.6239919 C253.047362,34.2269628 252.833904,34.8299336 252.617111,35.4262418 C252.273577,34.853253 251.749939,34.400192 251.10623,34.1703302 C245.933214,32.3580863 241.647382,35.629453 240.61011,40.5265091 C240.146507,42.6952053 240.916956,45.523505 242.551242,47.3390802 C242.351125,47.4323575 242.141003,47.5156408 241.93088,47.5955927 C241.587347,47.7155206 240.393317,47.7688219 240.510052,47.9054065 C239.789632,47.0725738 240.023101,44.8938835 240.026437,43.9178037 C240.036443,41.1194859 240.386647,38.3178368 240.703498,35.5328444 C241.250484,34.4834753 241.764116,33.4174494 242.257738,32.354755 C245.402905,25.6154731 247.197284,18.583034 247.177273,11.1441727 C247.173937,10.3146714 245.579674,7.74954676 244.625785,8.97880777 C239.379393,15.7380777 238.942471,25.0757975 238.138669,33.3641482 C238.055287,33.5173894 237.971905,33.6706306 237.891859,33.8205405 C237.871847,33.0310151 236.897946,31.4852777 236.127497,31.2754038 C231.648219,30.0394802 228.419669,34.0370769 227.405745,37.7948179 C226.975494,39.3838626 227.118911,41.4692756 227.912707,43.0383324 C226.551914,43.2715255 225.157768,43.2348809 224.597441,42.3121023 C223.62354,40.6964069 224.417336,37.9647158 224.924298,36.3523517 C225.144427,35.649441 224.327283,34.4834753 223.563505,33.9238117 C224.357301,33.3241722 222.509557,30.6591077 221.298851,31.1721326 C217.199795,32.8977619 210.879443,39.800279 213.277508,44.4541479 C213.12075,44.4841299 212.973997,44.5607505 212.853927,44.7106604 C211.74995,46.0398613 210.539245,47.4956528 208.978334,48.3484734 C208.944982,48.3684614 208.904958,48.3817867 208.871606,48.3951121 C208.408002,45.0437934 209.365227,41.2893838 209.992259,38.0346737 C210.816073,33.7938898 211.843338,29.5964132 212.88728,25.4055992 C213.377566,23.4167948 214.424843,20.9682668 214.358138,18.8495405 L214.358138,18.8462092 C214.351467,18.7362753 214.348132,18.6263413 214.338126,18.5164074 C214.261415,17.6735808 212.130172,15.3016733 211.736609,16.9440194 C210.202381,23.3601622 205.2028,26.3317091 200.513399,30.4958725 C199.602868,31.3020545 198.78906,32.1548751 198.045293,33.0476717 C199.556174,25.4289185 201.193796,17.7035628 204.012106,10.4345993 C204.455698,9.29861551 201.990927,6.81344284 201.530659,7.99606523 C198.66899,15.3749626 197.038039,23.2235776 195.473794,30.9389394 C194.76338,34.4335053 194.113001,37.9447278 193.502645,41.4592816 C192.111834,45.6634209 191.578189,50.2040246 191.40142,54.681333 C191.361396,55.7007202 193.782808,58.2591821 194.022948,56.5835228 C194.633304,52.3394076 195.310365,48.1086176 196.040791,43.881159 C197.431602,39.6836824 199.706262,35.8493208 203.398414,32.687888 C205.296188,31.0621987 207.360725,29.6297265 209.178451,27.9240852 C208.201215,31.9883086 207.290684,36.0758513 206.663652,40.20337 C206.213389,43.2082302 205.339546,47.5656107 207.480795,50.1940306 C210.259081,53.6119759 213.554336,49.2979027 215.335374,47.1491944 C215.432097,47.0292665 215.472121,46.8660313 215.472121,46.6894708 C218.480541,48.425094 220.858594,45.6734149 222.519563,42.4620122 C222.672986,42.7485066 222.84642,43.0316697 223.046537,43.3081702 C225.36789,46.449615 228.923296,46.439621 232.428674,45.3003059 C232.558749,45.2569986 232.648802,45.1870406 232.725513,45.1070887 C234.676651,44.5041179 236.16085,42.5519581 237.314856,41.009552 C237.164768,43.488062 237.314856,46.0032167 238.422168,48.0186717 C240.303265,51.4532736 243.315021,51.1401285 246.336783,49.261258 C246.386812,49.2279447 246.420164,49.1879688 246.460188,49.1479928 C246.787045,49.1413301 247.117238,49.1046855 247.460771,49.0313962 C249.632037,48.5650099 251.076212,46.1164819 252.076796,44.4175033 C252.330277,43.9844303 252.567082,43.5413633 252.797216,43.094965 C253.007338,46.7461034 252.226883,53.8718197 254.851747,56.6068421 C255.692237,57.3364035 257.226465,55.9772206 257.386558,54.8878755" id="Fill-7"></path>
                    <path d="M276.683142,38.9404625 C275.949381,40.0398017 274.988821,41.21243 273.741427,41.7754249 C273.734757,41.7787563 273.728086,41.7754249 273.728086,41.7754249 C273.267818,41.9020155 272.804214,42.0119494 272.350616,42.0919013 C272.347281,42.0386 272.34061,41.9719734 272.330605,41.8953528 C272.237217,41.1791167 272.417322,40.3662721 272.600762,39.6833493 C273.397894,36.728459 275.929369,33.3071824 279.404729,33.9234786 C278.627609,35.6624332 277.740425,37.3514178 276.683142,38.9404625 M259.616525,42.1018953 C259.349703,42.2518052 259.032851,42.3417511 258.719335,42.3617391 C259.009505,41.2557373 259.743266,40.2430128 260.413657,39.3235656 C261.724421,37.5479663 263.525471,35.7823611 265.543314,34.633052 C264.172515,37.6212556 262.218042,40.6461038 259.616525,42.1018953 M286.632276,56.163442 C284.794538,53.1186058 282.843401,40.1563982 283.206946,36.7884229 C283.383716,35.1594022 283.527133,33.4770803 283.687226,31.7747703 C283.707238,31.711475 283.730585,31.6515111 283.750596,31.5948784 C284.711156,28.9264826 285.538305,26.2447614 286.595588,23.6096789 C288.223204,19.5421241 289.747426,15.3346535 289.80079,10.9239717 C289.814131,10.0844764 288.196522,7.53267713 287.249303,8.75527548 C283.91736,13.052692 282.719995,18.5827009 281.866164,23.7895707 C281.525966,25.8483331 281.205779,27.963728 280.945627,30.0924483 C280.665464,30.8519917 280.37863,31.6148664 280.07512,32.3644158 C279.71491,31.751451 279.201277,31.1751308 278.751015,31.0518715 C274.271736,29.8192792 271.046523,33.8135447 270.029263,37.574617 C269.665718,38.9238059 269.715747,40.6361098 270.229379,42.0819073 C269.462266,41.8553769 268.881927,41.282388 268.668469,40.1330789 C268.254895,37.937732 268.785204,35.5125233 269.455595,33.4204476 C269.81914,32.2644759 267.357705,29.8126165 266.970813,30.9819136 C266.850743,31.3550226 266.710661,31.7447883 266.563909,32.1412167 C266.050276,31.4649565 265.286498,30.9186183 264.676142,31.1717994 C260.380304,32.9374047 251.838657,41.282388 258.559242,45.030135 C261.467604,46.6491617 264.29592,43.5876688 266.373798,40.0997656 C266.483862,40.4628806 266.613938,40.819333 266.774032,41.1724541 C268.13149,44.153995 270.739677,45.383256 273.734757,45.0900989 C274.138325,45.1134182 274.575247,45.0767736 275.045521,44.9735023 C277.31351,44.4504834 278.861079,41.9386601 279.945044,40.1563982 C280.105137,39.8865604 280.261896,39.61006 280.418654,39.3302282 C280.542059,43.1812465 280.995657,55.4138926 283.780614,58.308819 C284.93462,58.7585486 286.585582,58.208879 286.632276,56.163442" id="Fill-9"></path>
                    <path d="M160.935323,21.0735368 C160.561772,26.0771955 160.121516,31.0741915 159.667918,36.0711874 C158.420524,36.590875 157.143112,37.043936 155.832348,37.4203764 C153.887881,37.9767086 151.943414,38.5563601 150.028965,39.2126322 C153.917899,33.306183 157.770145,27.3664204 160.935323,21.0735368 M170.640982,57.1718358 C170.454207,57.2184744 170.440866,57.1685045 170.640982,57.1718358 M142.70803,50.5791324 C144.659167,47.3843863 146.717034,44.2396102 148.788241,41.0948341 C152.223578,39.4991267 155.91573,38.4797395 159.544513,37.4303703 C158.577282,48.0606465 157.566693,58.6875913 157.036384,69.344518 C156.956337,70.9735387 159.741294,70.9901954 159.81467,69.4910966 C160.364991,58.4610608 161.425609,47.4643383 162.422857,36.4676158 C164.797575,35.5381745 167.048888,34.3089135 169.163454,32.8764413 C167.712608,38.5063902 166.621972,44.2962428 166.211733,50.0927582 C166.071652,52.0315926 165.964923,54.0870236 166.401844,55.9992074 C166.852107,57.9946745 168.739874,58.0879517 170.537589,58.0113311 C177.011363,57.7314994 180.466711,51.1987599 184.165534,46.7680902 C184.228905,46.6881382 181.143772,46.1184807 180.550093,46.8247228 C178.929148,48.7668886 177.478302,50.8423076 175.827339,52.7578227 C174.880121,53.8604931 173.862861,54.8932056 172.752213,55.8293095 C172.258592,56.2423946 171.721612,56.6055096 171.167956,56.9353113 C171.057892,57.0019379 170.957834,57.0552392 170.871116,57.0918839 C170.817752,57.0552392 170.761052,57.0219259 170.714358,56.98195 C169.847186,56.2990272 169.907221,54.3335421 169.867198,53.3774502 C169.770475,51.1454587 169.993938,48.8934791 170.247419,46.6781442 C170.901134,41.0182135 172.098499,35.4049213 173.622721,29.9215511 C173.689426,29.6816952 173.756132,29.4385081 173.822837,29.195321 C177.298197,25.9739242 180.726863,21.3333806 179.235993,16.5129452 C179.059224,15.9399563 175.894045,16.2464387 175.560517,16.672849 C172.772225,20.2107222 171.311373,24.9245551 170.107338,29.3252429 C169.610381,29.7916292 169.106754,30.2280335 168.616469,30.6411185 C166.725366,32.2334945 164.714193,33.5860148 162.582951,34.7120045 C163.216654,27.6828969 163.810333,20.6571205 164.223908,13.6113562 C164.307289,12.1655587 162.022624,11.9090462 161.535674,13.1682892 C157.683428,23.0956545 151.71328,31.9536628 145.869873,40.8383216 C145.092753,41.18478 144.322304,41.5445637 143.568531,41.9476547 C140.653498,43.4900608 138.132028,47.7475014 138.985859,49.8728903 C139.336064,50.7490303 142.004286,51.7317728 142.70803,50.5791324" id="Fill-11"></path>
                </g>
            </g>
        </g>
    </g>
</svg>